<svg width="142" height="74" viewBox="0 0 142 74" fill="none" xmlns="http://www.w3.org/2000/svg">
<path d="M52.8819 73.1646C51.5916 72.5658 50.8408 71.7344 51.2327 71.3383C51.4507 71.1181 51.6541 71.1764 52.0808 71.5815C54.8267 74.1887 59.5276 72.7114 59.4759 69.2575C59.4475 67.3576 58.7622 66.7564 55.3255 65.6162C49.9869 63.8449 50.6204 57.6714 56.1385 57.6925C57.6915 57.6985 59.5669 58.3942 59.8189 59.0577C60.082 59.7506 59.7268 59.7493 58.3167 59.0521C55.8903 57.8523 53.349 58.5871 52.7325 60.6669C52.1336 62.687 53.0202 63.7533 56.2769 64.9298C59.614 66.1353 60.4951 67.0712 60.357 69.2634C60.1329 72.8203 56.3707 74.7838 52.8819 73.1646ZM68.2269 73.2774C63.9276 71.7268 62.1921 65.3114 64.8782 60.8993C66.8779 57.6148 71.9403 56.6034 75.2617 58.8249C76.7778 59.8389 76.0786 60.161 74.2891 59.273C69.3645 56.8291 64.7173 59.9297 64.7161 65.6601C64.7149 72.071 70.4035 75.0686 75.494 71.3393C76.4328 70.6516 76.5193 71.5421 75.5838 72.2633C73.8546 73.5962 70.4227 74.0693 68.2269 73.2774ZM80.1232 65.6601C80.1232 57.8532 80.1335 57.6871 80.6162 57.6871C81.0874 57.6871 81.1093 57.8532 81.1093 61.4244C81.1093 65.1618 81.1093 65.1618 86.1015 65.162C91.0937 65.1622 91.0937 65.1622 91.0937 61.4869C91.0937 57.9777 91.116 57.8116 91.5867 57.8116C92.1726 57.8116 92.27 73.403 91.6853 73.6C91.136 73.785 91.0077 72.99 91.0295 69.5376C91.0517 66.0339 91.0517 66.0339 86.0805 65.9664C81.1093 65.899 81.1093 65.899 81.1093 69.7661C81.1093 73.4671 81.0881 73.6332 80.6162 73.6332C80.1335 73.6332 80.1232 73.4671 80.1232 65.6601ZM101.014 73.2916C97.2894 71.89 95.3722 67.0517 96.7665 62.5718C98.6986 56.3634 107.739 55.869 110.347 61.8291C113.328 68.6419 107.542 75.748 101.014 73.2916ZM106.625 72.1984C111.738 69.5392 111.131 60.4428 105.732 58.8223C100.912 57.3755 97.2175 60.5467 97.4173 65.9602C97.6199 71.449 102.156 74.5224 106.625 72.1984ZM118.844 73.1571C113.212 70.8492 112.76 61.5541 118.132 58.5464C122.408 56.1527 127.94 58.6772 128.949 63.4822C130.379 70.2908 124.825 75.6083 118.844 73.1571ZM124.644 72.146C129.38 69.7413 129.4 61.5822 124.675 59.146C119.971 56.7207 115.143 60.3317 115.43 66.0608C115.703 71.5093 120.134 74.4358 124.644 72.146ZM133.431 65.7257C133.491 58.4232 133.529 57.8119 133.928 57.7344C134.331 57.656 134.359 58.1415 134.359 65.1435C134.359 72.6366 134.359 72.6366 138.057 72.6366C141.591 72.6366 141.755 72.6587 141.755 73.1349C141.755 73.6137 141.591 73.6332 137.561 73.6332C133.366 73.6332 133.366 73.6332 133.431 65.7257ZM21.008 58.0704C13.3844 56.3194 4.85058 46.9879 1.59813 36.8462C-3.73011 20.2317 4.60457 11.7544 21.5419 16.5612C30.9752 19.2382 33.4047 18.9016 39.7306 14.0412C51.0361 5.35451 59.0784 7.25076 55.9506 17.8656C55.2838 20.1281 55.5368 21.4019 56.7558 21.9199C57.6014 22.2792 55.2192 22.8546 80.2465 16.2457C86.7548 14.527 94.9087 12.3752 98.3662 11.464C101.824 10.5527 105.842 9.49136 107.295 9.10538C110.363 8.29086 111.364 7.7381 112.266 6.3607C112.736 5.64192 113.089 5.36383 113.531 5.36383C114.132 5.36383 114.315 4.9867 113.955 4.49177C113.856 4.35474 113.565 4.24262 113.309 4.24262C112.353 4.24262 112.329 3.13384 113.276 2.73375C114.917 2.04102 116.125 2.91163 114.866 3.87912C113.584 4.86467 114.823 5.35724 117.066 4.75373C118.785 4.29141 119.259 3.1214 117.728 3.1214C117.175 3.1214 116.856 2.7071 116.856 1.98942C116.856 1.60615 118.683 1.01869 119.224 1.22826C119.696 1.41158 119.674 2.62309 119.198 2.62309C118.811 2.62309 118.724 3.0562 118.978 3.72392C119.174 4.24099 119.522 4.22153 121.161 3.60182C122.759 2.99747 123.153 1.98163 121.848 1.82987C121.325 1.76909 121.153 1.60183 121.095 1.09953C120.996 0.234407 122.916 -0.40906 123.45 0.310261C123.902 0.918348 123.827 1.40583 123.259 1.55609C122.82 1.67208 122.758 2.37201 123.146 2.82462C123.183 2.86694 123.961 2.55861 124.875 2.13943C126.843 1.23791 126.791 1.24611 126.597 1.86472C126.233 3.02289 126.756 4.17938 128.364 5.77221C131.875 9.25173 132.038 11.3877 128.812 11.6456C126.594 11.8231 126.594 11.8231 125.238 10.3526C122.413 7.28926 121.771 7.28281 111.186 10.2113C97.3909 14.0276 87.4 17.0473 75.6857 20.941C62.4891 25.3275 56.8707 26.1288 50.2933 24.5625C44.6992 23.2304 42.8065 24.1906 41.2187 29.1662C39.6666 34.0302 39.2127 34.3776 34.3478 34.4258C29.2853 34.4759 27.2356 35.072 24.6749 37.2388C18.6554 42.3323 22.1931 53.2184 30.621 55.5361C31.1474 55.6808 31.1071 55.7452 30.0516 56.4467C27.5453 58.1122 23.9785 58.7526 21.008 58.0704ZM37.3042 53.6963C30.6857 51.5153 29.8863 41.6931 36.0784 38.6361C38.7302 37.3269 42.0068 37.2912 44.4747 38.5446C46.3207 39.4822 46.4166 39.655 45.6984 40.7517C44.8696 42.0176 44.6116 42.0777 43.0867 41.3602C38.0201 38.9762 33.4918 44.1594 36.344 49.0781C38.028 51.9824 42.6945 52.4833 42.8488 49.7763C42.9214 48.5012 42.8043 48.3073 42.0505 48.4541C41.0882 48.6415 40.6788 48.1982 40.6788 46.9685C40.6788 45.7275 40.6788 45.7275 43.3906 45.7275C46.1024 45.7275 46.1024 45.7275 46.1024 49.2295C46.1024 53.8338 42.8037 55.5085 37.3042 53.6963ZM52.8562 53.6141C48.552 51.5465 46.8423 37.7544 50.8901 37.7544C52.7586 37.7544 52.7586 37.7544 52.7586 43.1193C52.7586 49.9214 53.2593 51.205 55.9141 51.208C58.6727 51.2112 59.0241 50.3946 59.1683 43.6464C59.2916 37.879 59.2916 37.879 61.0789 37.8058C63.5107 37.7062 63.8886 48.6639 61.5598 51.7497C59.8168 54.0593 55.6438 54.9532 52.8562 53.6141ZM66.482 54.0327C66.3916 53.9414 66.3176 50.2414 66.3176 45.8105C66.3176 37.7544 66.3176 37.7544 68.1666 37.7544C70.0156 37.7544 70.0156 37.7544 70.0156 45.9766C70.0156 54.1988 70.0156 54.1988 68.3309 54.1988C67.4044 54.1988 66.5724 54.1241 66.482 54.0327ZM77.1649 47.4825C77.1649 40.7443 77.1649 40.7443 74.8228 40.7443C72.4808 40.7443 72.4808 40.7443 72.4808 39.2598C72.4808 36.9518 85.1318 37.0031 85.2509 39.3116C85.3249 40.7443 85.3249 40.7443 83.0322 40.7442C80.7395 40.7441 80.7395 40.7441 80.7395 47.4092C80.7395 54.0743 80.7395 54.0743 78.9522 54.1475C77.1649 54.2207 77.1649 54.2207 77.1649 47.4825ZM84.5142 54.0688C84.4434 53.9972 85.3436 51.4465 86.5148 48.4004C87.6859 45.3544 89.0841 41.7129 89.6219 40.3083C90.5997 37.7544 90.5997 37.7544 92.4691 37.7544C94.6155 37.7544 93.7727 36.1748 99.1162 50.2123C99.8205 52.0623 100.451 53.7161 100.517 53.8874C100.605 54.1137 100.264 54.1988 99.2715 54.1988C97.1071 54.1988 96.77 53.9717 96.1527 52.0969C95.3139 49.5494 89.5886 49.539 88.7508 52.0836C88.4531 52.9879 88.015 53.8148 87.7608 53.9523C87.2893 54.2073 84.7417 54.2987 84.5142 54.0688ZM94.6672 47.783C94.6636 47.1606 92.4566 41.1863 92.3431 41.4918C92.1103 42.1185 90.2308 47.8169 90.2308 47.8959C90.2308 47.9366 91.2293 47.9699 92.4496 47.9699C93.6699 47.9699 94.6678 47.8858 94.6672 47.783ZM102.732 54.0433C102.636 53.9461 102.557 50.2294 102.557 45.7839C102.557 37.4458 104.829 35.5554 111.346 38.4721C114.986 40.1011 115.129 45.0323 111.591 46.8925C110.896 47.2578 110.893 47.2675 111.393 47.6215C111.849 47.9441 114.889 52.7754 115.273 53.7882C115.408 54.1433 115.217 54.1984 113.862 54.1954C111.416 54.1901 111.399 54.1783 109.699 51.1763C108.111 48.3719 107.728 47.9699 106.649 47.9699C106.024 47.9699 106.024 47.9699 105.955 51.0221C105.889 53.8965 104.176 55.5028 102.732 54.0433ZM109.431 45.072C111.865 43.3491 110.316 40.3083 107.125 40.5458C106.167 40.6171 105.517 43.5737 106.113 45.146C106.299 45.6353 108.712 45.5814 109.431 45.072Z" fill="black"/>
</svg>
