<svg width="239" height="250" viewBox="0 0 239 250" fill="none" xmlns="http://www.w3.org/2000/svg">
<path opacity="0.69" fill-rule="evenodd" clip-rule="evenodd" d="M232.328 86.7194C233.476 90.4046 234.463 94.1556 235.28 97.9612L70.3694 11.5316C73.7527 9.94633 77.2119 8.52334 80.7363 7.27017L232.328 86.7194ZM60.0745 16.9947C63.0586 15.2167 66.1178 13.572 69.2435 12.0666L235.544 99.225C236.259 102.726 236.831 106.272 237.255 109.855L60.0745 16.9947ZM142.103 3.0605C165.563 7.90789 186.043 19.6439 201.997 35.857L137.923 2.27582C139.315 2.5109 140.709 2.77235 142.103 3.0605ZM114.247 0.766142C121.039 0.489042 127.935 0.820458 134.874 1.80258L204.166 38.119C208.975 43.2638 213.344 48.8271 217.226 54.7373L114.247 0.766142ZM225.829 70.0661C223.602 65.3599 221.094 60.8077 218.323 56.4373L112.286 0.863207C107.24 1.15678 102.255 1.78591 97.3562 2.73312L225.829 70.0661ZM95.8037 3.0445C91.1223 4.01738 86.5221 5.28119 82.0249 6.82053L231.899 85.3696C230.369 80.6453 228.572 76.0323 226.522 71.5541L95.8037 3.0445ZM2.62609 99.0893C2.50395 99.6899 2.38579 100.293 2.27165 100.897C1.824 103.268 1.4441 105.636 1.13056 108L202.672 213.627C204.728 211.515 206.713 209.322 208.622 207.052L2.62609 99.0893ZM201.942 214.37L0.99509 109.054C0.606402 112.178 0.333436 115.294 0.172946 118.397L195.251 220.637C197.553 218.639 199.786 216.548 201.942 214.37ZM2.83659 98.0746L209.275 206.269C211.366 203.741 213.364 201.12 215.261 198.409L5.28523 88.3604C4.35254 91.537 3.53439 94.7764 2.83659 98.0746ZM5.57512 87.3873C6.41928 84.5939 7.35227 81.8499 8.3701 79.1579L220.468 190.319C219.001 192.804 217.455 195.227 215.834 197.584L5.57512 87.3873ZM3.23298 153.762C2.42579 150.231 1.76468 146.651 1.25539 143.031L175.686 234.451C172.624 236.18 169.487 237.771 166.284 239.217L3.23298 153.762ZM3.53304 155.044C4.46428 158.934 5.57313 162.763 6.85183 166.518L154.362 243.828C158.018 242.642 161.609 241.274 165.123 239.734L3.53304 155.044ZM176.713 233.864L1.09084 141.82C0.593134 138.021 0.262545 134.18 0.105664 130.306L186.139 227.806C183.089 229.975 179.944 231.997 176.713 233.864ZM0.120824 119.495C-0.0192164 122.734 -0.0368105 125.957 0.064336 129.159L187.044 227.155C189.579 225.317 192.045 223.376 194.438 221.336L0.120824 119.495ZM39.2776 217.274C33.5427 211.852 28.3407 205.871 23.7364 199.435L119.054 249.39C111.465 249.375 103.767 248.598 96.0411 247.002L95.9728 246.988L39.2776 217.274ZM42.1525 219.906C56.1839 232.34 73.161 241.536 92.2181 246.145L42.1525 219.906ZM7.32874 167.893C8.8216 172.119 10.5304 176.25 12.444 180.268L140.503 247.384C144.746 246.575 148.926 245.527 153.025 244.253L7.32874 167.893ZM138.913 247.676L13.1743 181.776C15.8976 187.305 19.0116 192.614 22.4863 197.654L121.17 249.375C127.172 249.275 133.1 248.699 138.913 247.676ZM8.72865 78.2208L220.972 189.458C222.238 187.273 223.442 185.04 224.583 182.761L11.6985 71.188C10.6435 73.4894 9.65262 75.8343 8.72865 78.2208ZM12.1178 70.2827C13.338 67.6756 14.6409 65.1254 16.0221 62.6348L228.549 174.02C227.458 176.691 226.282 179.308 225.026 181.868L12.1178 70.2827ZM16.5091 61.7649L228.924 173.092C230.132 170.068 231.232 166.976 232.218 163.82L21.6439 53.4581C19.8333 56.1446 18.1196 58.915 16.5091 61.7649ZM22.2078 52.6286L232.516 162.851C233.363 160.065 234.121 157.229 234.786 154.347L27.3714 45.6405C25.5756 47.8996 23.8528 50.23 22.2078 52.6286ZM28.0065 44.8484L235.014 153.341C235.322 151.96 235.608 150.568 235.873 149.166C236.171 147.589 236.438 146.013 236.677 144.439L33.8487 38.1364C31.8273 40.2948 29.8782 42.5334 28.0065 44.8484ZM34.5594 37.3838L236.83 143.394C237.27 140.326 237.597 137.265 237.815 134.216L41.0274 31.0795C38.8001 33.0944 36.6423 35.1971 34.5594 37.3838ZM50.9377 23.0253C53.5788 21.1024 56.2939 19.2911 59.0759 17.5963L237.39 111.051C237.752 114.376 237.985 117.731 238.087 121.11L50.9377 23.0253ZM50.0442 23.6821L238.116 122.251C238.192 125.854 238.118 129.482 237.888 133.129L41.8192 30.3695C44.4679 28.0153 47.2126 25.7841 50.0442 23.6821Z" fill="url(#paint0_linear_107_43)" fill-opacity="0.5"/>
<defs>
<linearGradient id="paint0_linear_107_43" x1="59.0195" y1="239.352" x2="235.468" y2="82.9021" gradientUnits="userSpaceOnUse">
<stop offset="0.0520833" stop-color="#FF7B49"/>
<stop offset="0.489583" stop-color="#559CFF"/>
<stop offset="0.965805" stop-color="#2E2828"/>
</linearGradient>
</defs>
</svg>
